<svg xmlns="http://www.w3.org/2000/svg" viewBox="0 0 612 792"><defs><style>.cls-1{fill:#f15735;}.cls-2{font-size:200px;font-family:FiraMono-Bold, Fira Mono;font-weight:700;}.cls-2,.cls-3{fill:#11294b;}.cls-3{font-size:42px;font-family:FiraSans-Italic, Fira Sans;font-style:italic;}.cls-4{letter-spacing:0em;}.cls-5{letter-spacing:0em;}.cls-6{letter-spacing:-0.04em;}</style></defs><g id="Layer_1" data-name="Layer 1"><path class="cls-1" d="M256.62,453.21A24.59,24.59,0,1,0,232,428.62C232.39,442.56,243,453.21,256.62,453.21Zm0-29.36a4.77,4.77,0,1,1-4.77,4.77A4.43,4.43,0,0,1,256.62,423.85Z"/><path class="cls-1" d="M335.16,453.21a24.59,24.59,0,1,0-24.59-24.59C311.67,442.56,322.31,453.21,335.16,453.21Zm0-29.36a4.77,4.77,0,1,1-4.77,4.77C331.12,425.68,333,423.85,335.16,423.85Z"/><path class="cls-1" d="M385.8,302.37H384a19.58,19.58,0,0,0-19.45-19.45H227.26a19.57,19.57,0,0,0-19.45,19.45H206c-4,0-7.71,2.93-7.71,7v16.52c0,2.93,4,5.87,7.71,5.87h1.84V463.85c0,7.71,7,14.68,14.68,14.68h4.77v9.91a29.36,29.36,0,0,0,58.72,0v-9.91h19.45v9.91a29.36,29.36,0,1,0,58.72,0v-9.91h5.14c7.7,0,14.68-7,14.68-14.68V331.73h1.83c4,0,7.71-2.94,7.71-7V309.34C393.88,305.3,389.84,302.37,385.8,302.37ZM227.26,341.64H286v39.27H227.26Zm39.27,146.8c0,5.87-4,9.91-9.91,9.91s-9.91-4-9.91-9.91v-9.91h19.82Zm78.17,0c0,5.87-4,9.91-9.91,9.91s-9.91-4-9.91-9.91v-9.91H344.7Zm19.82-29.36H227.62V400.36h136.9Zm0-78.17H305.8V341.64h58.72Zm0-58.72H227.26V302.37H364.15v19.82Z"/></g><g id="Layer_2" data-name="Layer 2"><text class="cls-2" transform="translate(236.43 274.2)">T</text><text class="cls-2" transform="translate(198.26 453.21) rotate(-90)">T</text><text class="cls-2" transform="translate(393.53 331.52) rotate(90)">T</text><text class="cls-3" transform="translate(116.84 562.96) scale(1.01 1)">B<tspan class="cls-4" x="25.28" y="0">U</tspan><tspan class="cls-5" x="50.27" y="0">S A</tspan><tspan class="cls-6" x="105.25" y="0">L</tspan><tspan x="122.51" y="0">GO GO BRRRR</tspan></text></g></svg>